<svg xmlns="http://www.w3.org/2000/svg" width="1104.5" height="689" viewBox="0 0 1104.5 689">
  <g id="Union_1" data-name="Union 1" fill="#fc442f">
    <path d="M 598.9999389648438 688.0541381835938 L 598.9999389648438 499.5000305175781 L 598.9999389648438 499.0000305175781 L 598.4999389648438 499.0000305175781 L 0.5000818371772766 499.0000305175781 L 0.5000818371772766 190.0004730224609 L 598.4999389648438 190.0004730224609 L 598.9999389648438 190.0004730224609 L 598.9999389648438 189.5004730224609 L 598.9999389648438 0.9453475475311279 L 1103.611450195312 344.5001831054688 L 598.9999389648438 688.0541381835938 Z" stroke="none"/>
    <path d="M 599.4999389648438 687.1089477539062 L 1102.72314453125 344.5001831054688 L 599.4999389648438 1.890556216239929 L 599.4999389648438 190.5004730224609 L 1.000081777572632 190.5004730224609 L 1.000081777572632 498.5000305175781 L 599.4999389648438 498.5000305175781 L 599.4999389648438 687.1089477539062 M 598.4999389648438 688.9994506835938 L 598.4999389648438 499.5000305175781 L 8.182198507711291e-05 499.5000305175781 L 8.182198507711291e-05 189.5004730224609 L 598.4999389648438 189.5004730224609 L 598.4999389648438 4.157366129220463e-05 L 1104.5 344.5001831054688 L 598.4999389648438 688.9994506835938 Z" stroke="none" fill="#707070"/>
  </g>
</svg>
